<mxfile host="www.draw.io" modified="2019-12-13T13:06:40.345Z" agent="Mozilla/5.0 (Windows NT 6.1; Win64; x64) AppleWebKit/537.36 (KHTML, like Gecko) Chrome/77.0.3865.120 Safari/537.36" etag="G4V67AEvsVijiiZgLSwO" version="12.4.1" type="github" pages="1">
  <diagram id="uQzB3ri-bsp8VUMcORI5" name="第 1 页">
    <mxGraphModel dx="865" dy="514" grid="1" gridSize="10" guides="1" tooltips="1" connect="1" arrows="1" fold="1" page="1" pageScale="1" pageWidth="1200" pageHeight="1920" math="0" shadow="0">
      <root>
        <mxCell id="0"/>
        <mxCell id="1" parent="0"/>
        <mxCell id="f6cel8fHr0TImWsFFgJo-74" value="" style="rounded=1;whiteSpace=wrap;html=1;arcSize=9;dashed=1;" vertex="1" parent="1">
          <mxGeometry x="678.5" y="930" width="140" height="250" as="geometry"/>
        </mxCell>
        <mxCell id="f6cel8fHr0TImWsFFgJo-33" value="" style="rounded=1;whiteSpace=wrap;html=1;dashed=1;" vertex="1" parent="1">
          <mxGeometry x="785" y="630" width="50" height="60" as="geometry"/>
        </mxCell>
        <mxCell id="f6cel8fHr0TImWsFFgJo-11" style="edgeStyle=orthogonalEdgeStyle;rounded=0;orthogonalLoop=1;jettySize=auto;html=1;" edge="1" parent="1" source="f6cel8fHr0TImWsFFgJo-6">
          <mxGeometry relative="1" as="geometry">
            <mxPoint x="160.5" y="480" as="targetPoint"/>
          </mxGeometry>
        </mxCell>
        <mxCell id="f6cel8fHr0TImWsFFgJo-6" value="" style="outlineConnect=0;fontColor=#232F3E;gradientColor=none;fillColor=#232F3E;strokeColor=none;dashed=0;verticalLabelPosition=bottom;verticalAlign=top;align=center;html=1;fontSize=12;fontStyle=0;aspect=fixed;pointerEvents=1;shape=mxgraph.aws4.user;" vertex="1" parent="1">
          <mxGeometry x="127" y="84.5" width="67" height="67" as="geometry"/>
        </mxCell>
        <mxCell id="f6cel8fHr0TImWsFFgJo-12" style="edgeStyle=orthogonalEdgeStyle;rounded=0;orthogonalLoop=1;jettySize=auto;html=1;" edge="1" parent="1" source="f6cel8fHr0TImWsFFgJo-7">
          <mxGeometry relative="1" as="geometry">
            <mxPoint x="319.5" y="480" as="targetPoint"/>
          </mxGeometry>
        </mxCell>
        <mxCell id="f6cel8fHr0TImWsFFgJo-7" value="" style="outlineConnect=0;fontColor=#232F3E;gradientColor=none;fillColor=#232F3E;strokeColor=none;dashed=0;verticalLabelPosition=bottom;verticalAlign=top;align=center;html=1;fontSize=12;fontStyle=0;aspect=fixed;pointerEvents=1;shape=mxgraph.aws4.traditional_server;" vertex="1" parent="1">
          <mxGeometry x="297" y="79" width="45" height="78" as="geometry"/>
        </mxCell>
        <mxCell id="f6cel8fHr0TImWsFFgJo-8" value="user" style="text;html=1;strokeColor=none;fillColor=none;align=center;verticalAlign=middle;whiteSpace=wrap;rounded=0;" vertex="1" parent="1">
          <mxGeometry x="140.5" y="50" width="40" height="20" as="geometry"/>
        </mxCell>
        <mxCell id="f6cel8fHr0TImWsFFgJo-10" value="Tomcat" style="text;html=1;strokeColor=none;fillColor=none;align=center;verticalAlign=middle;whiteSpace=wrap;rounded=0;" vertex="1" parent="1">
          <mxGeometry x="299.5" y="50" width="40" height="20" as="geometry"/>
        </mxCell>
        <mxCell id="f6cel8fHr0TImWsFFgJo-13" value="request" style="endArrow=classic;html=1;" edge="1" parent="1">
          <mxGeometry width="50" height="50" relative="1" as="geometry">
            <mxPoint x="160" y="200" as="sourcePoint"/>
            <mxPoint x="320" y="200" as="targetPoint"/>
          </mxGeometry>
        </mxCell>
        <mxCell id="f6cel8fHr0TImWsFFgJo-14" value="从线程池中获取线程" style="endArrow=classic;html=1;" edge="1" parent="1">
          <mxGeometry width="50" height="50" relative="1" as="geometry">
            <mxPoint x="320" y="240" as="sourcePoint"/>
            <mxPoint x="560" y="240" as="targetPoint"/>
          </mxGeometry>
        </mxCell>
        <mxCell id="f6cel8fHr0TImWsFFgJo-15" value="调用IO对象获取请求数据" style="endArrow=classic;html=1;" edge="1" parent="1">
          <mxGeometry width="50" height="50" relative="1" as="geometry">
            <mxPoint x="319.5" y="280" as="sourcePoint"/>
            <mxPoint x="559.5" y="280" as="targetPoint"/>
          </mxGeometry>
        </mxCell>
        <mxCell id="f6cel8fHr0TImWsFFgJo-16" value="通过HTTP协议对数据进行解析" style="endArrow=classic;html=1;" edge="1" parent="1">
          <mxGeometry width="50" height="50" relative="1" as="geometry">
            <mxPoint x="319.5" y="320" as="sourcePoint"/>
            <mxPoint x="559.5" y="320" as="targetPoint"/>
          </mxGeometry>
        </mxCell>
        <mxCell id="f6cel8fHr0TImWsFFgJo-17" value="创建Request对象,并对数据进行存储" style="endArrow=classic;html=1;" edge="1" parent="1">
          <mxGeometry width="50" height="50" relative="1" as="geometry">
            <mxPoint x="320" y="360" as="sourcePoint"/>
            <mxPoint x="560" y="360" as="targetPoint"/>
          </mxGeometry>
        </mxCell>
        <mxCell id="f6cel8fHr0TImWsFFgJo-18" value="过滤并且处理请求" style="endArrow=classic;html=1;" edge="1" parent="1">
          <mxGeometry width="50" height="50" relative="1" as="geometry">
            <mxPoint x="319.5" y="400" as="sourcePoint"/>
            <mxPoint x="559.5" y="400" as="targetPoint"/>
          </mxGeometry>
        </mxCell>
        <mxCell id="f6cel8fHr0TImWsFFgJo-19" value="response" style="endArrow=classic;html=1;" edge="1" parent="1">
          <mxGeometry width="50" height="50" relative="1" as="geometry">
            <mxPoint x="320" y="440" as="sourcePoint"/>
            <mxPoint x="160" y="440" as="targetPoint"/>
          </mxGeometry>
        </mxCell>
        <mxCell id="f6cel8fHr0TImWsFFgJo-21" value="DB" style="shape=cylinder;whiteSpace=wrap;html=1;boundedLbl=1;backgroundOutline=1;" vertex="1" parent="1">
          <mxGeometry x="850" y="620" width="60" height="80" as="geometry"/>
        </mxCell>
        <mxCell id="f6cel8fHr0TImWsFFgJo-22" value="MySQL" style="text;html=1;strokeColor=none;fillColor=none;align=center;verticalAlign=middle;whiteSpace=wrap;rounded=0;" vertex="1" parent="1">
          <mxGeometry x="870" y="580" width="40" height="20" as="geometry"/>
        </mxCell>
        <mxCell id="f6cel8fHr0TImWsFFgJo-23" value="JDBC Driver" style="rounded=1;whiteSpace=wrap;html=1;" vertex="1" parent="1">
          <mxGeometry x="680" y="630" width="90" height="60" as="geometry"/>
        </mxCell>
        <mxCell id="f6cel8fHr0TImWsFFgJo-27" value="SQL" style="endArrow=classic;html=1;entryX=-0.002;entryY=0.367;entryDx=0;entryDy=0;entryPerimeter=0;" edge="1" parent="1" target="f6cel8fHr0TImWsFFgJo-21">
          <mxGeometry width="50" height="50" relative="1" as="geometry">
            <mxPoint x="770" y="650" as="sourcePoint"/>
            <mxPoint x="840" y="650" as="targetPoint"/>
          </mxGeometry>
        </mxCell>
        <mxCell id="f6cel8fHr0TImWsFFgJo-28" value="records" style="endArrow=classic;html=1;" edge="1" parent="1">
          <mxGeometry width="50" height="50" relative="1" as="geometry">
            <mxPoint x="849.5" y="670" as="sourcePoint"/>
            <mxPoint x="769.5" y="670" as="targetPoint"/>
          </mxGeometry>
        </mxCell>
        <mxCell id="f6cel8fHr0TImWsFFgJo-34" value="TCP传输协议" style="text;html=1;strokeColor=none;fillColor=none;align=center;verticalAlign=middle;whiteSpace=wrap;rounded=0;dashed=1;" vertex="1" parent="1">
          <mxGeometry x="770" y="700" width="80" height="20" as="geometry"/>
        </mxCell>
        <mxCell id="f6cel8fHr0TImWsFFgJo-37" value="JDBC 标准" style="ellipse;whiteSpace=wrap;html=1;" vertex="1" parent="1">
          <mxGeometry x="520" y="630" width="90" height="60" as="geometry"/>
        </mxCell>
        <mxCell id="f6cel8fHr0TImWsFFgJo-39" value="" style="endArrow=none;html=1;exitX=0.968;exitY=0.669;exitDx=0;exitDy=0;exitPerimeter=0;startArrow=classic;startFill=1;endFill=0;" edge="1" parent="1" source="f6cel8fHr0TImWsFFgJo-37">
          <mxGeometry width="50" height="50" relative="1" as="geometry">
            <mxPoint x="610" y="670" as="sourcePoint"/>
            <mxPoint x="680" y="670" as="targetPoint"/>
          </mxGeometry>
        </mxCell>
        <mxCell id="f6cel8fHr0TImWsFFgJo-40" value="" style="endArrow=classic;html=1;exitX=0.968;exitY=0.669;exitDx=0;exitDy=0;exitPerimeter=0;startArrow=none;startFill=0;endFill=1;" edge="1" parent="1">
          <mxGeometry width="50" height="50" relative="1" as="geometry">
            <mxPoint x="607.1200000000001" y="650.14" as="sourcePoint"/>
            <mxPoint x="680" y="650" as="targetPoint"/>
          </mxGeometry>
        </mxCell>
        <mxCell id="f6cel8fHr0TImWsFFgJo-41" value="MyBatis 框架" style="rounded=1;whiteSpace=wrap;html=1;" vertex="1" parent="1">
          <mxGeometry x="350" y="630" width="100" height="60" as="geometry"/>
        </mxCell>
        <mxCell id="f6cel8fHr0TImWsFFgJo-42" value="" style="endArrow=classic;html=1;exitX=0.968;exitY=0.669;exitDx=0;exitDy=0;exitPerimeter=0;startArrow=none;startFill=0;endFill=1;" edge="1" parent="1">
          <mxGeometry width="50" height="50" relative="1" as="geometry">
            <mxPoint x="450.1200000000001" y="650.1399999999999" as="sourcePoint"/>
            <mxPoint x="523" y="650" as="targetPoint"/>
          </mxGeometry>
        </mxCell>
        <mxCell id="f6cel8fHr0TImWsFFgJo-43" value="" style="endArrow=none;html=1;exitX=0.968;exitY=0.669;exitDx=0;exitDy=0;exitPerimeter=0;startArrow=classic;startFill=1;endFill=0;" edge="1" parent="1">
          <mxGeometry width="50" height="50" relative="1" as="geometry">
            <mxPoint x="450.1200000000001" y="670.1400000000001" as="sourcePoint"/>
            <mxPoint x="523" y="670" as="targetPoint"/>
          </mxGeometry>
        </mxCell>
        <mxCell id="f6cel8fHr0TImWsFFgJo-45" style="edgeStyle=orthogonalEdgeStyle;rounded=0;orthogonalLoop=1;jettySize=auto;html=1;entryX=0;entryY=0.5;entryDx=0;entryDy=0;startArrow=none;startFill=0;endArrow=classic;endFill=1;" edge="1" parent="1" source="f6cel8fHr0TImWsFFgJo-44" target="f6cel8fHr0TImWsFFgJo-41">
          <mxGeometry relative="1" as="geometry"/>
        </mxCell>
        <mxCell id="f6cel8fHr0TImWsFFgJo-44" value="app程序" style="rounded=1;whiteSpace=wrap;html=1;" vertex="1" parent="1">
          <mxGeometry x="220" y="640" width="60" height="40" as="geometry"/>
        </mxCell>
        <mxCell id="f6cel8fHr0TImWsFFgJo-46" value="" style="endArrow=none;dashed=1;html=1;" edge="1" parent="1">
          <mxGeometry width="50" height="50" relative="1" as="geometry">
            <mxPoint x="314.5" y="760" as="sourcePoint"/>
            <mxPoint x="314.5" y="560" as="targetPoint"/>
          </mxGeometry>
        </mxCell>
        <mxCell id="f6cel8fHr0TImWsFFgJo-47" value="" style="endArrow=none;dashed=1;html=1;" edge="1" parent="1">
          <mxGeometry width="50" height="50" relative="1" as="geometry">
            <mxPoint x="489.9999999999999" y="760" as="sourcePoint"/>
            <mxPoint x="489.9999999999999" y="560" as="targetPoint"/>
          </mxGeometry>
        </mxCell>
        <mxCell id="f6cel8fHr0TImWsFFgJo-48" value="" style="endArrow=none;dashed=1;html=1;" edge="1" parent="1">
          <mxGeometry width="50" height="50" relative="1" as="geometry">
            <mxPoint x="644.4999999999999" y="760" as="sourcePoint"/>
            <mxPoint x="644.4999999999999" y="560" as="targetPoint"/>
          </mxGeometry>
        </mxCell>
        <mxCell id="f6cel8fHr0TImWsFFgJo-49" value="org.mybatis" style="text;html=1;strokeColor=none;fillColor=none;align=center;verticalAlign=middle;whiteSpace=wrap;rounded=0;" vertex="1" parent="1">
          <mxGeometry x="380" y="580" width="40" height="20" as="geometry"/>
        </mxCell>
        <mxCell id="f6cel8fHr0TImWsFFgJo-50" value="java.sql.*" style="text;html=1;strokeColor=none;fillColor=none;align=center;verticalAlign=middle;whiteSpace=wrap;rounded=0;" vertex="1" parent="1">
          <mxGeometry x="545" y="580" width="40" height="20" as="geometry"/>
        </mxCell>
        <mxCell id="f6cel8fHr0TImWsFFgJo-51" value="com.mysql.*" style="text;html=1;strokeColor=none;fillColor=none;align=center;verticalAlign=middle;whiteSpace=wrap;rounded=0;" vertex="1" parent="1">
          <mxGeometry x="707.5" y="580" width="40" height="20" as="geometry"/>
        </mxCell>
        <mxCell id="f6cel8fHr0TImWsFFgJo-52" value="" style="rounded=0;whiteSpace=wrap;html=1;" vertex="1" parent="1">
          <mxGeometry x="440" y="920" width="30" height="220" as="geometry"/>
        </mxCell>
        <mxCell id="f6cel8fHr0TImWsFFgJo-54" value="" style="endArrow=none;html=1;strokeWidth=4;" edge="1" parent="1">
          <mxGeometry width="50" height="50" relative="1" as="geometry">
            <mxPoint x="450" y="1135" as="sourcePoint"/>
            <mxPoint x="450" y="925" as="targetPoint"/>
          </mxGeometry>
        </mxCell>
        <mxCell id="f6cel8fHr0TImWsFFgJo-55" value="" style="endArrow=none;html=1;strokeWidth=4;" edge="1" parent="1">
          <mxGeometry width="50" height="50" relative="1" as="geometry">
            <mxPoint x="460" y="1135" as="sourcePoint"/>
            <mxPoint x="460" y="925" as="targetPoint"/>
          </mxGeometry>
        </mxCell>
        <mxCell id="f6cel8fHr0TImWsFFgJo-56" value="Filters" style="text;html=1;strokeColor=none;fillColor=none;align=center;verticalAlign=middle;whiteSpace=wrap;rounded=0;" vertex="1" parent="1">
          <mxGeometry x="435" y="890" width="40" height="20" as="geometry"/>
        </mxCell>
        <mxCell id="f6cel8fHr0TImWsFFgJo-57" value="" style="endArrow=classic;html=1;strokeWidth=1;" edge="1" parent="1">
          <mxGeometry width="50" height="50" relative="1" as="geometry">
            <mxPoint x="360" y="959" as="sourcePoint"/>
            <mxPoint x="560" y="960" as="targetPoint"/>
          </mxGeometry>
        </mxCell>
        <mxCell id="f6cel8fHr0TImWsFFgJo-61" style="rounded=0;orthogonalLoop=1;jettySize=auto;html=1;startArrow=none;startFill=0;endArrow=classic;endFill=1;strokeWidth=1;entryX=0;entryY=0.5;entryDx=0;entryDy=0;exitX=1;exitY=0.5;exitDx=0;exitDy=0;" edge="1" parent="1" source="f6cel8fHr0TImWsFFgJo-59" target="f6cel8fHr0TImWsFFgJo-60">
          <mxGeometry relative="1" as="geometry"/>
        </mxCell>
        <mxCell id="f6cel8fHr0TImWsFFgJo-72" style="edgeStyle=none;rounded=0;orthogonalLoop=1;jettySize=auto;html=1;entryX=0.5;entryY=0;entryDx=0;entryDy=0;startArrow=none;startFill=0;endArrow=classic;endFill=1;strokeWidth=1;" edge="1" parent="1" source="f6cel8fHr0TImWsFFgJo-59" target="f6cel8fHr0TImWsFFgJo-70">
          <mxGeometry relative="1" as="geometry"/>
        </mxCell>
        <mxCell id="f6cel8fHr0TImWsFFgJo-59" value="Servlet" style="rounded=1;whiteSpace=wrap;html=1;" vertex="1" parent="1">
          <mxGeometry x="560" y="931.5" width="90" height="56" as="geometry"/>
        </mxCell>
        <mxCell id="f6cel8fHr0TImWsFFgJo-66" style="edgeStyle=none;rounded=0;orthogonalLoop=1;jettySize=auto;html=1;entryX=0.014;entryY=0.353;entryDx=0;entryDy=0;startArrow=none;startFill=0;endArrow=classic;endFill=1;strokeWidth=1;exitX=1;exitY=0.25;exitDx=0;exitDy=0;entryPerimeter=0;" edge="1" parent="1" source="f6cel8fHr0TImWsFFgJo-60" target="f6cel8fHr0TImWsFFgJo-62">
          <mxGeometry relative="1" as="geometry"/>
        </mxCell>
        <mxCell id="f6cel8fHr0TImWsFFgJo-60" value="Service,Dao" style="rounded=1;whiteSpace=wrap;html=1;" vertex="1" parent="1">
          <mxGeometry x="702.5" y="987.5" width="90" height="56" as="geometry"/>
        </mxCell>
        <mxCell id="f6cel8fHr0TImWsFFgJo-67" style="edgeStyle=none;rounded=0;orthogonalLoop=1;jettySize=auto;html=1;entryX=1;entryY=0.75;entryDx=0;entryDy=0;startArrow=none;startFill=0;endArrow=classic;endFill=1;strokeWidth=1;exitX=0.015;exitY=0.658;exitDx=0;exitDy=0;exitPerimeter=0;" edge="1" parent="1" source="f6cel8fHr0TImWsFFgJo-62" target="f6cel8fHr0TImWsFFgJo-60">
          <mxGeometry relative="1" as="geometry">
            <mxPoint x="859" y="1030" as="sourcePoint"/>
          </mxGeometry>
        </mxCell>
        <mxCell id="f6cel8fHr0TImWsFFgJo-62" value="DB" style="shape=cylinder;whiteSpace=wrap;html=1;boundedLbl=1;backgroundOutline=1;" vertex="1" parent="1">
          <mxGeometry x="860" y="970" width="60" height="90" as="geometry"/>
        </mxCell>
        <mxCell id="f6cel8fHr0TImWsFFgJo-69" style="edgeStyle=none;rounded=0;orthogonalLoop=1;jettySize=auto;html=1;entryX=0.5;entryY=1;entryDx=0;entryDy=0;startArrow=classic;startFill=1;endArrow=classic;endFill=1;strokeWidth=1;" edge="1" parent="1" source="f6cel8fHr0TImWsFFgJo-68" target="f6cel8fHr0TImWsFFgJo-60">
          <mxGeometry relative="1" as="geometry"/>
        </mxCell>
        <mxCell id="f6cel8fHr0TImWsFFgJo-73" style="edgeStyle=none;rounded=0;orthogonalLoop=1;jettySize=auto;html=1;entryX=1;entryY=0.5;entryDx=0;entryDy=0;startArrow=none;startFill=0;endArrow=classic;endFill=1;strokeWidth=1;dashed=1;" edge="1" parent="1" source="f6cel8fHr0TImWsFFgJo-68" target="f6cel8fHr0TImWsFFgJo-70">
          <mxGeometry relative="1" as="geometry"/>
        </mxCell>
        <mxCell id="f6cel8fHr0TImWsFFgJo-68" value="POJO" style="rounded=1;whiteSpace=wrap;html=1;" vertex="1" parent="1">
          <mxGeometry x="704.5" y="1085" width="88" height="50" as="geometry"/>
        </mxCell>
        <mxCell id="f6cel8fHr0TImWsFFgJo-71" style="edgeStyle=none;rounded=0;orthogonalLoop=1;jettySize=auto;html=1;startArrow=none;startFill=0;endArrow=classic;endFill=1;strokeWidth=1;" edge="1" parent="1" source="f6cel8fHr0TImWsFFgJo-70">
          <mxGeometry relative="1" as="geometry">
            <mxPoint x="360" y="1110" as="targetPoint"/>
          </mxGeometry>
        </mxCell>
        <mxCell id="f6cel8fHr0TImWsFFgJo-70" value="HTML/JSP..." style="rounded=1;whiteSpace=wrap;html=1;" vertex="1" parent="1">
          <mxGeometry x="550" y="1080" width="110" height="60" as="geometry"/>
        </mxCell>
        <mxCell id="f6cel8fHr0TImWsFFgJo-75" value="Model&lt;br&gt;(M)" style="text;html=1;strokeColor=none;fillColor=none;align=center;verticalAlign=middle;whiteSpace=wrap;rounded=0;dashed=1;" vertex="1" parent="1">
          <mxGeometry x="728.5" y="880" width="40" height="20" as="geometry"/>
        </mxCell>
        <mxCell id="f6cel8fHr0TImWsFFgJo-76" value="View&lt;br&gt;(v)" style="text;html=1;strokeColor=none;fillColor=none;align=center;verticalAlign=middle;whiteSpace=wrap;rounded=0;dashed=1;" vertex="1" parent="1">
          <mxGeometry x="585" y="1160" width="40" height="20" as="geometry"/>
        </mxCell>
        <mxCell id="f6cel8fHr0TImWsFFgJo-77" value="Controller&lt;br&gt;(C)" style="text;html=1;strokeColor=none;fillColor=none;align=center;verticalAlign=middle;whiteSpace=wrap;rounded=0;dashed=1;" vertex="1" parent="1">
          <mxGeometry x="582" y="890" width="40" height="20" as="geometry"/>
        </mxCell>
        <mxCell id="f6cel8fHr0TImWsFFgJo-79" value="1" style="ellipse;whiteSpace=wrap;html=1;aspect=fixed;" vertex="1" parent="1">
          <mxGeometry x="390" y="930" width="20" height="20" as="geometry"/>
        </mxCell>
        <mxCell id="f6cel8fHr0TImWsFFgJo-80" value="2" style="ellipse;whiteSpace=wrap;html=1;aspect=fixed;" vertex="1" parent="1">
          <mxGeometry x="510" y="930" width="20" height="20" as="geometry"/>
        </mxCell>
        <mxCell id="f6cel8fHr0TImWsFFgJo-81" value="3" style="ellipse;whiteSpace=wrap;html=1;aspect=fixed;" vertex="1" parent="1">
          <mxGeometry x="650" y="990" width="20" height="20" as="geometry"/>
        </mxCell>
        <mxCell id="f6cel8fHr0TImWsFFgJo-82" value="4" style="ellipse;whiteSpace=wrap;html=1;aspect=fixed;" vertex="1" parent="1">
          <mxGeometry x="825" y="977.5" width="20" height="20" as="geometry"/>
        </mxCell>
        <mxCell id="f6cel8fHr0TImWsFFgJo-83" value="5" style="ellipse;whiteSpace=wrap;html=1;aspect=fixed;" vertex="1" parent="1">
          <mxGeometry x="825" y="1033.5" width="20" height="20" as="geometry"/>
        </mxCell>
        <mxCell id="f6cel8fHr0TImWsFFgJo-85" value="6" style="ellipse;whiteSpace=wrap;html=1;aspect=fixed;" vertex="1" parent="1">
          <mxGeometry x="750" y="1054" width="20" height="20" as="geometry"/>
        </mxCell>
        <mxCell id="f6cel8fHr0TImWsFFgJo-87" value="7" style="ellipse;whiteSpace=wrap;html=1;aspect=fixed;" vertex="1" parent="1">
          <mxGeometry x="580" y="1030" width="20" height="20" as="geometry"/>
        </mxCell>
        <mxCell id="f6cel8fHr0TImWsFFgJo-88" value="8" style="ellipse;whiteSpace=wrap;html=1;aspect=fixed;" vertex="1" parent="1">
          <mxGeometry x="510" y="1085" width="20" height="20" as="geometry"/>
        </mxCell>
        <mxCell id="f6cel8fHr0TImWsFFgJo-89" value="9" style="ellipse;whiteSpace=wrap;html=1;aspect=fixed;" vertex="1" parent="1">
          <mxGeometry x="390" y="1085" width="20" height="20" as="geometry"/>
        </mxCell>
      </root>
    </mxGraphModel>
  </diagram>
</mxfile>
